<svg id="Layer_2" viewBox="0 0 64 64" xmlns="http://www.w3.org/2000/svg" data-name="Layer 2"><path d="m12 27a1 1 0 0 1 -1-1v-6a9.01 9.01 0 0 1 9-9h9.64a9.039 9.039 0 0 0 4.024-.95l1.889-.945a1 1 0 1 1 .894 1.79l-1.888.944a11.055 11.055 0 0 1 -4.919 1.161h-9.64a7.009 7.009 0 0 0 -7 7v6a1 1 0 0 1 -1 1z" fill="#3c3c3b"/><path d="m6 27a1 1 0 0 1 -1-1v-8a13.015 13.015 0 0 1 13-13h11.64a9.039 9.039 0 0 0 4.024-.95l1.889-.945a1 1 0 1 1 .894 1.79l-1.888.944a11.055 11.055 0 0 1 -4.919 1.161h-11.64a11.013 11.013 0 0 0 -11 11v8a1 1 0 0 1 -1 1z" fill="#3c3c3b"/><path d="m6 50 2 4a7.237 7.237 0 0 0 6.472 4h1.528l-2-4h4a7.237 7.237 0 0 0 6.472 4h1.528l-2-4h4a7.237 7.237 0 0 0 6.472 4h1.528l-2-4h4l1.852 2.778a7.236 7.236 0 0 0 6.021 3.222h6.127l2-4a5.55 5.55 0 0 0 5.265-3.8l.735-2.2h-8l2-4a5.55 5.55 0 0 0 5.265-3.8l.735-2.2h-8l2-4a5.55 5.55 0 0 0 5.265-3.8l.735-2.2h-8l2-4a5.55 5.55 0 0 0 5.265-3.8l.735-2.2h-24a8 8 0 0 0 -8 8l-16.22.116-3.78 1.884v6h16l4 6-4 6h-18z" fill="#ff2741"/><g fill="#d30729"><path d="m48 54-2 4h-5.109a7.228 7.228 0 0 0 4.982 2h6.127l2-4a5.55 5.55 0 0 0 5.265-3.8l.735-2.2h-6.667l-.068.2a5.55 5.55 0 0 1 -5.265 3.8z"/><path d="m33.852 54.778-1.852-2.778h-4l2 4h-.5a7.22 7.22 0 0 0 4.97 2h1.53l-.9-1.807a7.237 7.237 0 0 1 -1.248-1.415z"/><path d="m22 52h-4l2 4h-.5a7.22 7.22 0 0 0 4.97 2h1.53l-1.657-3.313a7.219 7.219 0 0 1 -2.343-2.687z"/><path d="m12 52h-4l2 4h-.5a7.22 7.22 0 0 0 4.97 2h1.53l-1.657-3.313a7.219 7.219 0 0 1 -2.343-2.687z"/><path d="m48 24-2 4h7l1-2a5.55 5.55 0 0 0 5.265-3.8l.735-2.2h-6.667l-.068.2a5.55 5.55 0 0 1 -5.265 3.8z"/><path d="m59.265 32.205.735-2.205h-6.667l-.068.2a5.55 5.55 0 0 1 -5.265 3.8l-2 4h7l1-2a5.55 5.55 0 0 0 5.265-3.795z"/><path d="m48 44-2 4h7l1-2a5.55 5.55 0 0 0 5.265-3.8l.735-2.2h-6.667l-.068.2a5.55 5.55 0 0 1 -5.265 3.8z"/></g><path d="m10 34h12a8 8 0 0 1 8 8 8 8 0 0 1 -8 8h-16a2 2 0 0 1 -2-2 2 2 0 0 1 2-2h16a4 4 0 0 0 4-4 4 4 0 0 0 -4-4h-12a2 2 0 0 1 -2-2 2 2 0 0 1 2-2z" fill="#efc555"/><path d="m23.427 34.134a7.858 7.858 0 0 1 2.48 7.022 3.965 3.965 0 0 1 -2.2 4.451 7.97 7.97 0 0 1 -5.707 2.393h-14a2 2 0 0 0 2 2h16a8 8 0 0 0 1.427-15.866z" fill="#a77f26"/><path d="m11.78 28.116a3 3 0 1 0 -5.56 0 2.992 2.992 0 1 0 2.78 5.105 2.991 2.991 0 1 0 2.78-5.1z" fill="#fff"/><path d="m11.867 28.147a2.932 2.932 0 0 1 .133.853 2.988 2.988 0 0 1 -5 2.221 2.978 2.978 0 0 1 -2 .779 2.983 2.983 0 0 1 -.86-.14 2.973 2.973 0 0 0 4.86 1.361 2.989 2.989 0 1 0 2.867-5.074z" fill="#cececc"/><circle cx="36" cy="28" fill="#fff" r="8"/><path d="m37.427 20.134a7.992 7.992 0 0 1 -5.427 13.866 8.083 8.083 0 0 1 -1.427-.134 7.994 7.994 0 1 0 6.854-13.732z" fill="#cececc"/><circle cx="32" cy="28" fill="#3c3c3b" r="4"/><path d="m33.64 24.36a3.985 3.985 0 0 1 -5.28 5.28 3.995 3.995 0 1 0 5.28-5.28z" fill="#1d1d1b"/><path d="m10 38 4 4 4-4z" fill="#cececc"/><path d="m6 46 4-4 4 4z" fill="#cececc"/><path d="m48 20 11.379-12a2.12 2.12 0 0 0 .4-2.447 2.12 2.12 0 0 0 -3.399-.553l-6.38 7v-4a2 2 0 0 0 -2-2 2 2 0 0 0 -2 2v8l-4 4z" fill="#efc555"/><path d="m49.982 7.825a1.994 1.994 0 0 0 -1.982-1.825v4z" fill="#a77f26"/><path d="m59.776 5.553a2.1 2.1 0 0 0 -1.8-1.156 2.1 2.1 0 0 1 -.597 1.603l-10.2 10.752a4 4 0 0 1 -2.898 1.248h-.281l-2 2h6l11.379-12a2.12 2.12 0 0 0 .397-2.447z" fill="#a77f26"/><path d="m36 41a1 1 0 0 1 0-2 11.013 11.013 0 0 0 11-11 1 1 0 0 1 2 0 13.015 13.015 0 0 1 -13 13z" fill="#fff"/><path d="m38 49h-2a1 1 0 0 1 0-2h2a1 1 0 0 0 0-2h-2a1 1 0 0 1 0-2h2a3 3 0 0 1 0 6z" fill="#fff"/><path d="m46 47h-2a1 1 0 0 1 0-2h2a1 1 0 0 0 0-2h-2a1 1 0 0 1 0-2h2a3 3 0 0 1 0 6z" fill="#fff"/><path d="m46 55h-2a1 1 0 0 1 0-2h2a1 1 0 0 0 0-2h-2a1 1 0 0 1 0-2h2a3 3 0 0 1 0 6z" fill="#fff"/></svg>